
[code]
oooooo     oooo  o8o   .oooooo..o ooooo     ooo       .o.       ooooo         o8o   .oooooo..o oooooooooooo
`888.     .8'   `"'  d8P'    `Y8 `888'     `8'      .888.      `888'         `"'  d8P'    `Y8 `888'     `8
`888.   .8'   oooo  Y88bo.       888       8      .8"888.      888         oooo  Y88bo.       888        
 `888. .8'    `888   `"Y8888o.   888       8     .8' `888.     888         `888   `"Y8888o.   888oooo8    
  `888.8'      888       `"Y88b  888       8    .88ooo8888.    888          888       `"Y88b  888    "    
   `888'       888  oo     .d8P  `88.    .8'   .8'     `888.   888       o  888  oo     .d8P  888       o
    `8'       o888o 8""88888P'     `YbodP'    o88o     o8888o o888ooooood8 o888o 8""88888P'  o888ooooood8
[/code]



Title: On The Inside 2011 DvDRiP XviD AC3 - VISUALiSE
Format: Xvid
Language: English
Subtitles: No
Imdb: http://www.imdb.com/title/tt1260365/

Plot:
A decent but troubled young man is sent to a psychiatric 
institution for the criminally insane and soon finds himself 
in a fight for his life battling ghosts inside his head 
and very real enemies all around him.

Sources:
Video: DIDyourSISTER - Many Thanks 
Audio: DIDyourSISTER - Many Thanks 

Release Notes:
VISUALiSE Bringing you...............
On The Inside 2011 DvDRiP XviD AC3 - VISUALiSE
First off thanks to DIDyoursISTER  for bringing 
us this and letting us do your sister to second's
was mighty sloppy  

Done our normal thing on this ran some filters and
a little sharpen then muxed the AC3 audio back 
to our encode  

enjoy. 

Info:
Video
ID                               : 0
Format                           : MPEG-4 Visual
Format profile                   : Advanced Simple@L5
Format settings, BVOP            : 2
Format settings, QPel            : No
Format settings, GMC             : No warppoints
Format settings, Matrix          : Default (H.263)
Codec ID                         : XVID
Codec ID/Hint                    : XviD
Duration                         : 1h 26mn
Bit rate                         : 1 748 Kbps
Width                            : 720 pixels
Height                           : 400 pixels
Display aspect ratio             : 16:9
Frame rate                       : 25.000 fps
Color space                      : YUV
Chroma subsampling               : 4:2:0
Bit depth                        : 8 bits
Scan type                        : Progressive
Compression mode                 : Lossy
Bits/(Pixel*Frame)               : 0.243
Stream size                      : 1.06 GiB (93%)

Audio
ID                               : 1
Format                           : AC-3
Format/Info                      : Audio Coding 3
Mode extension                   : CM (complete main)
Codec ID                         : 2000
Duration                         : 1h 26mn
Bit rate mode                    : Constant
Bit rate                         : 128 Kbps
Channel(s)                       : 6 channels
Channel positions                : Front: L C R, Side: L R, LFE
Sampling rate                    : 48.0 KHz
Bit depth                        : 16 bits
Compression mode                 : Lossy
Stream size                      : 79.6 MiB (7%)
Alignment                        : Aligned on interleaves
Interleave, duration             : 32 ms (0.80 video frame)


Screens:

[img]http://i.imgur.com/7sGD5.png[/img]
[img]http://i.imgur.com/H1d6h.png[/img]
[img]http://i.imgur.com/Ru9sx.png[/img]
[img]http://i.imgur.com/Okuj2.png[/img]

Greetz
The Select Few .... YOU Know Who YOU Are 